<?xml version="1.0" encoding="utf-8"?>
<!-- Generator: Adobe Illustrator 25.4.1, SVG Export Plug-In . SVG Version: 6.00 Build 0)  -->
<svg version="1.1" id="Ebene_1" xmlns="http://www.w3.org/2000/svg" xmlns:xlink="http://www.w3.org/1999/xlink" x="0px" y="0px"
	 viewBox="0 0 152 81" style="enable-background:new 0 0 152 81;" xml:space="preserve">
<style type="text/css">
	.st0{fill:#95C11C;}
	.st1{fill:#565655;}
	.st2{enable-background:new    ;}
</style>
<g id="Gruppe_63" transform="translate(-244 167)">
	<g id="Gruppe_7" transform="translate(173.65 -253.314)">
		<path id="Pfad_1" class="st0" d="M207.3,101v37.2h-18.5V95l14.7,4.8l0.8,0.3L207.3,101z"/>
		<path id="Pfad_2" class="st1" d="M204.4,92.4v7.6l-0.8-0.3v-6.7l-14.7-4.8l-3.3-1.1v50.9h-18.4V97l-3.3-1.1v42.2h-18.6v-35.6
			l17.4-7l1.2-0.5l0,0l3.3,1.1v-2.4l8.1-3.3l0,0l9.2-3.7l1.2-0.5l3.3,1.1l14.7,4.8L204.4,92.4z"/>
	</g>
	<g class="st2">
		<path class="st1" d="M246.2-108.1c-0.4-0.4-0.6-0.8-0.6-1.3s0.2-1,0.6-1.3c0.4-0.4,0.9-0.5,1.4-0.5c0.6,0,1,0.2,1.4,0.5
			s0.6,0.8,0.6,1.3c0,0.5-0.2,1-0.6,1.4s-0.9,0.6-1.4,0.6C247.1-107.5,246.6-107.7,246.2-108.1z M246-105.3h3.1V-92H246V-105.3z"/>
		<path class="st1" d="M274.1-104c1,1,1.5,2.4,1.5,4.4v7.7h-3.1v-7.2c0-1.2-0.3-2-0.8-2.6c-0.5-0.6-1.3-0.9-2.2-0.9
			c-1,0-1.9,0.3-2.5,1c-0.6,0.7-1,1.7-1,3v6.8h-3.1v-7.2c0-1.2-0.3-2-0.8-2.6c-0.5-0.6-1.3-0.9-2.2-0.9c-1.1,0-1.9,0.3-2.5,1
			s-0.9,1.7-0.9,3v6.8h-3.1v-13.3h3v1.7c0.5-0.6,1.1-1.1,1.9-1.4c0.8-0.3,1.6-0.5,2.5-0.5c1,0,1.9,0.2,2.7,0.6s1.4,0.9,1.8,1.7
			c0.6-0.7,1.3-1.2,2.1-1.6s1.8-0.6,2.9-0.6C271.8-105.5,273.1-105,274.1-104z"/>
		<path class="st1" d="M300.4-104c1,1,1.5,2.4,1.5,4.4v7.7h-3.1v-7.2c0-1.2-0.3-2-0.8-2.6c-0.5-0.6-1.3-0.9-2.2-0.9
			c-1,0-1.9,0.3-2.5,1c-0.6,0.7-1,1.7-1,3v6.8h-3.1v-7.2c0-1.2-0.3-2-0.8-2.6c-0.5-0.6-1.3-0.9-2.2-0.9c-1.1,0-1.9,0.3-2.5,1
			s-0.9,1.7-0.9,3v6.8h-3.1v-13.3h3v1.7c0.5-0.6,1.1-1.1,1.9-1.4c0.8-0.3,1.6-0.5,2.5-0.5c1,0,1.9,0.2,2.7,0.6s1.4,0.9,1.8,1.7
			c0.6-0.7,1.3-1.2,2.1-1.6s1.8-0.6,2.9-0.6C298.1-105.5,299.5-105,300.4-104z"/>
		<path class="st1" d="M308.4-92.7c-1.1-0.6-1.9-1.4-2.5-2.4c-0.6-1-0.9-2.2-0.9-3.5s0.3-2.5,0.9-3.5c0.6-1,1.5-1.8,2.5-2.4
			c1.1-0.6,2.3-0.9,3.6-0.9c1.4,0,2.6,0.3,3.7,0.9c1.1,0.6,1.9,1.4,2.5,2.4c0.6,1,0.9,2.2,0.9,3.5s-0.3,2.5-0.9,3.5
			c-0.6,1-1.5,1.9-2.5,2.4c-1.1,0.6-2.3,0.9-3.7,0.9C310.7-91.8,309.5-92.1,308.4-92.7z M314.9-95.7c0.8-0.8,1.1-1.8,1.1-3
			s-0.4-2.3-1.1-3s-1.7-1.1-2.9-1.1c-1.1,0-2.1,0.4-2.8,1.1s-1.1,1.8-1.1,3s0.4,2.3,1.1,3c0.7,0.8,1.7,1.2,2.8,1.2
			C313.2-94.5,314.1-94.9,314.9-95.7z"/>
	</g>
	<g class="st2">
		<path class="st0" d="M323.1-92.2c-1-0.3-1.9-0.6-2.5-1.1l1.2-2.4c0.6,0.4,1.3,0.7,2.2,1c0.8,0.2,1.7,0.4,2.5,0.4
			c1.9,0,2.8-0.5,2.8-1.5c0-0.5-0.2-0.8-0.7-1c-0.5-0.2-1.2-0.4-2.3-0.5c-1.1-0.2-2-0.4-2.7-0.6s-1.3-0.6-1.8-1.1
			c-0.5-0.5-0.8-1.3-0.8-2.3c0-1.3,0.5-2.3,1.6-3c1.1-0.8,2.5-1.1,4.3-1.1c0.9,0,1.8,0.1,2.8,0.3c0.9,0.2,1.7,0.5,2.2,0.8l-1.2,2.4
			c-1.1-0.7-2.4-1-3.8-1c-0.9,0-1.6,0.1-2.1,0.4c-0.5,0.3-0.7,0.6-0.7,1.1c0,0.5,0.3,0.9,0.8,1.1c0.5,0.2,1.3,0.4,2.4,0.6
			c1.1,0.2,1.9,0.4,2.6,0.6s1.3,0.6,1.8,1.1c0.5,0.5,0.7,1.2,0.7,2.2c0,1.2-0.5,2.2-1.6,3s-2.6,1.1-4.4,1.1
			C325.2-91.8,324.2-92,323.1-92.2z"/>
		<path class="st0" d="M355.9-104c1,1,1.5,2.4,1.5,4.4v7.7h-3.1v-7.2c0-1.2-0.3-2-0.8-2.6c-0.5-0.6-1.3-0.9-2.2-0.9
			c-1,0-1.9,0.3-2.5,1s-1,1.7-1,3v6.8h-3.1v-7.2c0-1.2-0.3-2-0.8-2.6c-0.5-0.6-1.3-0.9-2.2-0.9c-1.1,0-1.9,0.3-2.5,1s-0.9,1.7-0.9,3
			v6.8H335v-13.3h3v1.7c0.5-0.6,1.1-1.1,1.9-1.4c0.8-0.3,1.6-0.5,2.5-0.5c1,0,1.9,0.2,2.7,0.6c0.8,0.4,1.4,0.9,1.8,1.7
			c0.6-0.7,1.3-1.2,2.1-1.6c0.9-0.4,1.8-0.6,2.9-0.6C353.6-105.5,354.9-105,355.9-104z"/>
		<path class="st0" d="M371-104.1c1,0.9,1.6,2.4,1.6,4.3v7.8h-3v-1.6c-0.4,0.6-0.9,1-1.6,1.3c-0.7,0.3-1.6,0.5-2.6,0.5
			s-1.9-0.2-2.6-0.5c-0.8-0.3-1.3-0.8-1.7-1.4c-0.4-0.6-0.6-1.3-0.6-2.1c0-1.2,0.4-2.2,1.3-2.9c0.9-0.7,2.3-1.1,4.2-1.1h3.5v-0.2
			c0-0.9-0.3-1.7-0.8-2.2s-1.4-0.8-2.5-0.8c-0.8,0-1.5,0.1-2.2,0.4c-0.7,0.2-1.3,0.6-1.8,1l-1.2-2.3c0.7-0.5,1.5-0.9,2.5-1.2
			c1-0.3,2-0.4,3.1-0.4C368.4-105.5,369.9-105,371-104.1z M368.1-94.6c0.6-0.4,1-0.9,1.3-1.5v-1.5h-3.2c-1.8,0-2.7,0.6-2.7,1.8
			c0,0.6,0.2,1,0.7,1.4c0.4,0.3,1.1,0.5,1.9,0.5C366.8-94.1,367.5-94.3,368.1-94.6z"/>
		<path class="st0" d="M384.3-105.5v3c-0.3,0-0.5-0.1-0.7-0.1c-1.2,0-2.2,0.4-2.8,1.1c-0.7,0.7-1,1.7-1,3.1v6.5h-3.1v-13.3h3v1.9
			C380.4-104.8,382-105.5,384.3-105.5z"/>
		<path class="st0" d="M395.4-92.7c-0.4,0.3-0.8,0.5-1.3,0.7c-0.5,0.1-1.1,0.2-1.7,0.2c-1.5,0-2.6-0.4-3.4-1.1
			c-0.8-0.8-1.2-1.9-1.2-3.4v-6.4h-2.2v-2.5h2.2v-3h3.1v3h3.6v2.5H391v6.3c0,0.7,0.2,1.1,0.5,1.5s0.8,0.5,1.4,0.5
			c0.7,0,1.3-0.2,1.8-0.5L395.4-92.7z"/>
	</g>
</g>
</svg>
